HIERARCHY
ROOT Pelvis
{
	OFFSET 0.000000 0.000000 0.000000
	CHANNELS 6 Xposition Yposition Zposition Xrotation Yrotation Zrotation
	JOINT LeftUpLeg_virtual
	{
		OFFSET 0.000000 0.000000 0.000000
		CHANNELS 3 Xrotation Yrotation Zrotation
		JOINT LeftUpLeg
		{
			OFFSET 18.735201 -5.666702 -4.541200
			CHANNELS 3 Xrotation Yrotation Zrotation
			JOINT LeftLeg
			{
				OFFSET -0.021200 -31.938179 0.493100
				CHANNELS 3 Xrotation Yrotation Zrotation
				JOINT LeftFoot
				{
					OFFSET 0.021200 -31.938179 -4.336299
					CHANNELS 3 Xrotation Yrotation Zrotation
					JOINT LeftToeBase
					{
						OFFSET 0.943001 -26.722000 15.023500
						CHANNELS 3 Xrotation Yrotation Zrotation
						End Site
						{
							OFFSET 0 0 0
						}
					}
				}
			}
		}
	}
	JOINT RightUpLeg_virtual
	{
		OFFSET 0.000000 0.000000 0.000000
		CHANNELS 3 Xrotation Yrotation Zrotation
		JOINT RightUpLeg
		{
			OFFSET -18.735201 -5.666702 -4.541200
			CHANNELS 3 Xrotation Yrotation Zrotation
			JOINT RightLeg
			{
				OFFSET 0.018946 -31.938133 0.493100
				CHANNELS 3 Xrotation Yrotation Zrotation
				JOINT RightFoot
				{
					OFFSET -0.018946 -31.938126 -4.336299
					CHANNELS 3 Xrotation Yrotation Zrotation
					JOINT RightToeBase
					{
						OFFSET -0.943001 -26.722004 15.023500
						CHANNELS 3 Xrotation Yrotation Zrotation
						End Site
						{
							OFFSET 0 0 0
						}
					}
				}
			}
		}
	}
	JOINT Hips_virtual
	{
		OFFSET 0.000000 0.000000 0.000000
		CHANNELS 3 Xrotation Yrotation Zrotation
		JOINT Hips
		{
			OFFSET -0.000000 -0.000000 -0.000000
			CHANNELS 3 Xrotation Yrotation Zrotation
			JOINT Spine
			{
				OFFSET 0.000000 10.199997 -0.299500
				CHANNELS 3 Xrotation Yrotation Zrotation
				JOINT Spine1
				{
					OFFSET 0.000000 11.900002 -1.516600
					CHANNELS 3 Xrotation Yrotation Zrotation
					JOINT Spine2
					{
						OFFSET 0.000000 13.600006 -2.842500
						CHANNELS 3 Xrotation Yrotation Zrotation
						JOINT Neck_virtual
						{
							OFFSET 0.000000 0.000000 0.000000
							CHANNELS 3 Xrotation Yrotation Zrotation
							JOINT Neck
							{
								OFFSET 0.000000 9.624100 -2.890100
								CHANNELS 3 Xrotation Yrotation Zrotation
								JOINT Head
								{
									OFFSET 0.000000 14.068802 -1.351900
									CHANNELS 3 Xrotation Yrotation Zrotation
									End Site
									{
										OFFSET 0 0 0
									}
								}
							}
						}
						JOINT LeftShoulder_virtual
						{
							OFFSET 0.000000 0.000000 0.000000
							CHANNELS 3 Xrotation Yrotation Zrotation
							JOINT LeftShoulder
							{
								OFFSET 15.263000 10.923401 -0.547700
								CHANNELS 3 Xrotation Yrotation Zrotation
								JOINT LeftArm
								{
									OFFSET 25.438599 -2.830597 -13.032500
									CHANNELS 3 Xrotation Yrotation Zrotation
									JOINT LeftForeArm
									{
										OFFSET 29.960503 0.000000 0.000000
										CHANNELS 3 Xrotation Yrotation Zrotation
										JOINT LeftHand
										{
											OFFSET 27.849251 0.000000 0.000000
											CHANNELS 3 Xrotation Yrotation Zrotation
											End Site
											{
												OFFSET 0 0 0
											}
										}
									}
								}
							}
						}
						JOINT RightShoulder_virtual
						{
							OFFSET 0.000000 0.000000 0.000000
							CHANNELS 3 Xrotation Yrotation Zrotation
							JOINT RightShoulder
							{
								OFFSET -15.263000 10.923401 -0.547700
								CHANNELS 3 Xrotation Yrotation Zrotation
								JOINT RightArm
								{
									OFFSET -25.438599 -2.830597 -13.032500
									CHANNELS 3 Xrotation Yrotation Zrotation
									JOINT RightForeArm
									{
										OFFSET -29.960503 0.000000 0.000000
										CHANNELS 3 Xrotation Yrotation Zrotation
										JOINT RightHand
										{
											OFFSET -27.849251 0.000000 0.000000
											CHANNELS 3 Xrotation Yrotation Zrotation
											End Site
											{
												OFFSET 0 0 0
											}
										}
									}
								}
							}
						}
					}
				}
			}
		}
	}
}
MOTION
Frames: 5
Frame Time: 0.03333333
-10.165230 115.790245 23.069714 0.000000 0.000000 0.000000 26.420341 -56.167104 37.482838 -86.059257 -15.562516 21.794046 59.693463 4.864765 -10.729552 16.476202 4.802569 -7.385619 0.000000 0.000000 0.000000 26.963884 -55.219907 37.183785 -127.429815 -2.439106 -4.737744 111.422447 15.617176 28.951061 26.840434 -8.125361 52.786837 0.000000 0.000000 0.000000 26.519943 -54.795217 37.817405 -0.701145 -0.199479 -0.070183 27.722478 -2.731705 -14.377155 8.574893 -1.852698 -2.758224 0.000000 0.000000 0.000000 7.558692 -0.842154 -2.449274 -0.651527 7.953691 -1.603592 0.000000 0.000000 0.000000 7.132402 -0.062832 -3.161495 1.827282 -2.355006 -4.991373 -37.855186 26.179476 -21.337429 42.421116 -33.875822 43.486206 0.000000 0.000000 0.000000 4.721556 -0.326747 -1.990705 23.233544 14.557507 -19.899683 -56.970137 -14.793623 -13.991582 -0.431719 64.785417 6.761361 0.000000 0.000000 0.000000 
-10.086864 115.799301 23.056894 0.000000 0.000000 0.000000 26.277584 -55.983560 37.266779 -86.059195 -15.428486 21.810937 59.593441 4.772522 -10.803324 16.481964 4.827275 -7.470058 0.000000 0.000000 0.000000 26.809095 -55.041838 36.968867 -127.546147 -2.479189 -4.705655 111.449802 15.654753 28.935051 26.675915 -8.199807 52.732277 0.000000 0.000000 0.000000 26.327663 -54.614176 37.565849 -0.703304 -0.201820 -0.073224 27.698487 -2.770945 -14.355268 8.572825 -1.868852 -2.789303 0.000000 0.000000 0.000000 7.536177 -0.847589 -2.487232 -0.670466 7.958968 -1.601329 0.000000 0.000000 0.000000 7.132372 -0.053677 -3.163640 1.806337 -2.473058 -4.395085 -39.191704 25.819148 -20.060202 42.929484 -34.533949 44.145097 0.000000 0.000000 0.000000 4.726578 -0.339078 -2.047181 23.254072 14.245159 -20.161428 -57.754031 -14.757809 -14.769722 -0.380796 65.853173 6.741384 0.000000 0.000000 0.000000 
-9.983835 115.818970 23.062382 0.000000 0.000000 0.000000 25.951688 -55.590350 36.769418 -86.123993 -15.375475 21.849584 59.523514 4.564659 -10.890033 16.380090 4.792748 -7.570518 0.000000 0.000000 0.000000 26.470465 -54.677242 36.463327 -127.699730 -2.552469 -4.660177 111.516505 15.787033 28.921995 26.494732 -8.130591 52.853353 0.000000 0.000000 0.000000 26.008380 -54.278687 37.077279 -0.706143 -0.204252 -0.075597 27.670066 -2.930040 -14.268915 8.564903 -1.882915 -2.798862 0.000000 0.000000 0.000000 7.477414 -0.844163 -2.500176 -0.707777 7.989762 -1.609563 0.000000 0.000000 0.000000 7.135256 -0.045303 -3.163248 1.872077 -2.625351 -3.209837 -41.189039 25.081061 -18.314841 43.756763 -35.366132 45.026629 0.000000 0.000000 0.000000 4.761526 -0.352574 -2.088112 23.365934 13.675308 -21.158618 -59.201252 -14.885579 -15.138428 0.067704 67.374762 6.115560 0.000000 0.000000 0.000000 
-9.884977 115.846542 23.076149 0.000000 0.000000 0.000000 25.539069 -55.082658 36.119840 -86.253043 -15.409233 21.913409 59.528343 4.252943 -10.988636 16.173331 4.704417 -7.669496 0.000000 0.000000 0.000000 26.040911 -54.209873 35.798866 -127.912217 -2.651037 -4.621695 111.648492 15.971706 28.902318 26.422030 -7.942332 53.068108 0.000000 0.000000 0.000000 25.668554 -53.846872 36.482465 -0.708330 -0.208844 -0.075468 27.655451 -3.173197 -14.143048 8.562841 -1.871360 -2.793947 0.000000 0.000000 0.000000 7.412561 -0.821079 -2.497507 -0.760941 8.044126 -1.622588 0.000000 0.000000 0.000000 7.151960 -0.030299 -3.170834 2.027109 -2.835779 -1.633610 -43.129520 23.968566 -16.744620 44.633295 -36.101983 45.821779 0.000000 0.000000 0.000000 4.814275 -0.345952 -2.114895 23.540331 12.997862 -22.688138 -60.990598 -15.118057 -14.917519 0.978110 68.851510 4.849803 0.000000 0.000000 0.000000 
-9.812597 115.880081 23.088753 0.000000 0.000000 0.000000 25.154574 -54.556915 35.471406 -86.453987 -15.516108 22.005719 59.635755 3.862381 -11.099289 15.885821 4.575101 -7.762519 0.000000 0.000000 0.000000 25.617968 -53.724069 35.110608 -128.165440 -2.771124 -4.581533 111.852230 16.148596 28.909131 26.389049 -7.841798 53.237906 0.000000 0.000000 0.000000 25.391863 -53.403241 35.910491 -0.709240 -0.208023 -0.071966 27.652277 -3.442506 -14.033234 8.570100 -1.821110 -2.784483 0.000000 0.000000 0.000000 7.380121 -0.768269 -2.483985 -0.829901 8.116665 -1.635272 0.000000 0.000000 0.000000 7.188539 0.005272 -3.185553 2.254509 -3.136554 0.175377 -44.806468 22.456916 -15.769239 45.407692 -36.553683 46.366391 0.000000 0.000000 0.000000 4.893096 -0.301496 -2.133064 23.749666 12.363571 -24.481266 -62.885019 -15.216850 -14.291945 2.322065 70.015853 3.045722 0.000000 0.000000 0.000000 
